<svg xmlns="http://www.w3.org/2000/svg" viewBox="0 0 312.87 312.87"><defs><style>.cls-1{fill:#f7dddd;}.cls-1,.cls-2{stroke:#231916;}.cls-1,.cls-2,.cls-3,.cls-4{stroke-miterlimit:10;}.cls-2{fill:#f6b48f;}.cls-3{fill:#4c489b;stroke:#a79ecd;}.cls-4{fill:#a79ecd;stroke:#fff;stroke-width:4px;}</style></defs><g id="Layer_2" data-name="Layer 2"><g id="Import"><rect class="cls-1" x="0.5" y="0.5" width="311.87" height="311.87"/><rect class="cls-2" x="0.5" y="0.5" width="311.87" height="39.81"/><rect class="cls-1" x="194.4" y="7.41" width="25.98" height="25.98"/><rect class="cls-1" x="232.53" y="7.41" width="25.98" height="25.98"/><rect class="cls-1" x="270.65" y="7.41" width="25.98" height="25.98"/><circle class="cls-3" cx="189.78" cy="77.89" r="28.11"/><circle class="cls-3" cx="62.01" cy="195.89" r="28.11"/><polygon class="cls-3" points="184.85 128.06 79.63 168.5 144.06 73.95 164.46 101 184.85 128.06"/><polygon class="cls-3" points="112.35 194.04 191.63 305.59 64.14 241.66 88.24 217.85 112.35 194.04"/><path class="cls-4" d="M180.18,199.76c4.31,4.75,8.21,9.07,12.14,13.36,1.12,1.22,2.05,2.46,1.35,4.31s-2.08,2.11-3.68,2.08c-5.27-.13-10.55-.14-15.82-.3a9.78,9.78,0,0,1-7-3.46c-7.45-8.17-14.88-16.33-22.26-24.56a6.78,6.78,0,0,1,.09-9.51q11-12.18,22-24.28a10.57,10.57,0,0,1,8.19-3.73q7.54.08,15.09.07a3.14,3.14,0,0,1,3.35,2,3.61,3.61,0,0,1-1,4c-3.62,4-7.21,7.94-10.8,11.92-.42.46-.82,1-1.27,1.5a3.28,3.28,0,0,0,2.09.27h45.08c16.85,0,31,12.37,35,30.48a40.71,40.71,0,0,1,1,8.74q0,41.83,0,83.65c0,1.75-.44,2.14-2,2.12-6.64-.1-13.29-.12-19.93,0-1.73,0-2-.58-2-2.29q.08-41.11,0-82.22c0-8.76-4.95-14.22-12.89-14.22H180.18Z"/></g></g></svg>