<svg xmlns="http://www.w3.org/2000/svg" viewBox="0 0 312.87 312.87"><defs><style>.cls-1{fill:#f7dddd;}.cls-1,.cls-2{stroke:#231916;}.cls-1,.cls-2,.cls-3,.cls-4{stroke-miterlimit:10;}.cls-2{fill:#f6b48f;}.cls-3{fill:#4c489b;stroke:#a79ecd;}.cls-4{fill:#a79ecd;stroke:#fff;stroke-width:4px;}</style></defs><g id="Layer_2" data-name="Layer 2"><g id="Export"><rect class="cls-1" x="0.5" y="0.5" width="311.87" height="311.87"/><rect class="cls-2" x="0.5" y="0.5" width="311.87" height="39.81"/><rect class="cls-1" x="193.4" y="7.41" width="25.98" height="25.98"/><rect class="cls-1" x="232.03" y="7.41" width="25.98" height="25.98"/><rect class="cls-1" x="270.65" y="7.41" width="25.98" height="25.98"/><circle class="cls-3" cx="40.27" cy="80.94" r="27.25"/><circle class="cls-3" cx="144.63" cy="203.75" r="27.25"/><polygon class="cls-3" points="86.82 84.24 124.98 179.19 38.26 122.01 62.54 103.12 86.82 84.24"/><polygon class="cls-3" points="136.88 250.12 19.97 298.48 100.51 201.22 117.77 224.42 136.88 250.12"/><path class="cls-4" d="M263.84,185.66c-4.18,5.43-8,10.36-11.77,15.25-1.08,1.39-2,2.81-1.31,4.92s2,2.41,3.57,2.37c5.11-.14,10.23-.16,15.34-.34,2.64-.1,4.91-1.56,6.76-4q10.83-14,21.59-28a8.77,8.77,0,0,0-.09-10.86q-10.64-13.89-21.32-27.7c-2.19-2.84-4.83-4.29-7.95-4.26q-7.32.09-14.63.08a3.05,3.05,0,0,0-3.25,2.3,4.65,4.65,0,0,0,1,4.61c3.51,4.51,7,9.06,10.47,13.6.41.53.79,1.1,1.23,1.72-.73.54-1.39.3-2,.3q-21.85,0-43.71,0c-16.35,0-30.12,14.12-34,34.79a53.49,53.49,0,0,0-.94,10q0,47.73,0,95.47c0,2,.42,2.43,1.9,2.41,6.44-.11,12.89-.14,19.33,0,1.67,0,1.93-.66,1.92-2.62q-.06-46.91,0-93.83c0-10,4.8-16.22,12.5-16.23h45.43Z"/></g></g></svg>